<?xml version="1.0" encoding="UTF-8" standalone="no"?>
<svg
   xmlns:dc="http://purl.org/dc/elements/1.1/"
   xmlns:cc="http://creativecommons.org/ns#"
   xmlns:rdf="http://www.w3.org/1999/02/22-rdf-syntax-ns#"
   xmlns:svg="http://www.w3.org/2000/svg"
   xmlns="http://www.w3.org/2000/svg"
   xmlns:sodipodi="http://sodipodi.sourceforge.net/DTD/sodipodi-0.dtd"
   xmlns:inkscape="http://www.inkscape.org/namespaces/inkscape"
   width="105.00145mm"
   height="135.34435mm"
   viewBox="0 0 105.00145 135.34435"
   version="1.1"
   id="svg8"
   inkscape:version="1.0.2-2 (e86c870879, 2021-01-15)"
   sodipodi:docname="board.svg">
  <defs
     id="defs2" />
  <sodipodi:namedview
     id="base"
     pagecolor="#ffffff"
     bordercolor="#666666"
     borderopacity="1.0"
     inkscape:pageopacity="0.0"
     inkscape:pageshadow="2"
     inkscape:zoom="0.35"
     inkscape:cx="75.99875"
     inkscape:cy="312.78848"
     inkscape:document-units="mm"
     inkscape:current-layer="g24"
     inkscape:document-rotation="0"
     showgrid="false"
     fit-margin-top="0"
     fit-margin-left="0"
     fit-margin-right="0"
     fit-margin-bottom="0"
     inkscape:window-width="1273"
     inkscape:window-height="728"
     inkscape:window-x="77"
     inkscape:window-y="0"
     inkscape:window-maximized="0" />
  <metadata
     id="metadata5">
    <rdf:RDF>
      <cc:Work
         rdf:about="">
        <dc:format>image/svg+xml</dc:format>
        <dc:type
           rdf:resource="http://purl.org/dc/dcmitype/StillImage" />
        <dc:title></dc:title>
      </cc:Work>
    </rdf:RDF>
  </metadata>
  <g
     inkscape:label="طبقة 1"
     inkscape:groupmode="layer"
     id="layer1"
     transform="translate(-85.725331,-65.408047)">
    <g
       id="g24"
       style="fill:#000000">
      <path
         style="display:inline;fill:#000000;fill-opacity:1;stroke-width:0.264583"
         d="m 137.28095,200.25179 c -0.52112,-0.52113 -0.52916,-0.88195 -0.52916,-23.74349 v -23.21431 l -16.47527,16.46744 c -9.0614,9.05709 -16.65491,16.46744 -16.87447,16.46744 -0.21955,0 -0.6638,-0.18535 -0.98722,-0.41188 -1.44651,-1.01317 -1.65887,-0.76797 15.68383,-18.10895 8.94953,-8.94865 16.27188,-16.35799 16.27188,-16.46522 0,-0.10723 -10.33798,-0.22665 -22.97329,-0.26539 l -22.973287,-0.0704 -0.947882,-0.72306 c -2.602384,-1.98511 -2.209825,-6.45534 0.690169,-7.8592 l 1.136172,-0.55001 49.369888,0.0682 49.36988,0.0682 0.74698,0.5535 c 1.38778,1.0283 1.93761,2.14111 1.93761,3.92153 0,2.01768 -0.61211,3.25092 -2.01191,4.05343 l -1.03079,0.59096 -22.68802,0.004 c -12.47841,0.002 -22.68802,0.094 -22.68802,0.2036 0,0.10959 7.32234,7.52086 16.27187,16.4695 17.3427,17.34099 17.13034,17.09579 15.68384,18.10896 -0.32342,0.22653 -0.76768,0.41188 -0.98723,0.41188 -0.21956,0 -7.81113,-7.40842 -16.87016,-16.46315 l -16.47098,-16.46314 -0.0704,23.23345 -0.0704,23.23345 -0.62463,0.50573 c -0.79439,0.64321 -1.22767,0.63784 -1.88892,-0.0234 z M 97.064289,114.12992 V 89.655958 h 41.275001 41.27499 v 24.473962 24.47395 H 138.33929 97.064289 Z m 62.970831,21.56354 c 0.53335,-0.53336 0.68597,-1.47282 0.32668,-2.01092 -0.57668,-0.86365 -1.32504,-0.89948 -19.02856,-0.91121 l -17.67833,-0.0117 0.96373,-0.57457 c 0.82986,-0.49476 2.04261,-2.44289 8.73125,-14.02571 11.5114,-19.934457 11.60398,-20.100147 11.60398,-20.768376 0,-1.312931 -0.71212,-2.041779 -3.62261,-3.707675 -3.30343,-1.890816 -4.15234,-2.036511 -5.35155,-0.918467 -0.42924,0.400183 -5.01692,8.080988 -10.19486,17.068468 l -9.41443,16.34085 -0.16819,4.45495 c -0.16311,4.32012 -0.15097,4.47218 0.4011,5.02425 l 0.56929,0.56929 h 21.16667 c 20.81389,0 21.17548,-0.009 21.69583,-0.52916 z m -40.48125,-5.15328 c 0,-1.01858 0.0548,-1.06304 0.81114,-0.65825 0.68042,0.36415 0.64524,0.63614 -0.14968,1.15699 l -0.66146,0.4334 z m 2.44498,-3.47182 c -0.90818,-0.5118 -1.65123,-0.99077 -1.65123,-1.06437 0,-0.11179 13.1589,-23.05982 13.38694,-23.3457 0.065,-0.0815 2.18318,1.07826 3.23834,1.77315 0.27089,0.17839 -1.20107,2.91325 -6.3039,11.71248 -3.66152,6.31386 -6.73867,11.56418 -6.83811,11.66737 -0.0994,0.10319 -0.92386,-0.23113 -1.83204,-0.74293 z m 15.19752,-26.3692 c -0.84689,-0.47121 -1.52269,-0.975806 -1.50177,-1.121327 0.0209,-0.145521 0.52805,-1.12586 1.12698,-2.178531 l 1.08895,-1.913946 1.20657,0.70176 c 1.97269,1.147355 2.1326,1.25908 2.1326,1.489969 0,0.349636 -2.11931,3.885475 -2.32677,3.881965 -0.10272,-0.002 -0.87968,-0.38868 -1.72656,-0.85989 z M 88.695043,86.193052 c -0.455741,-0.1321 -1.250728,-0.707403 -1.766636,-1.278452 -1.937004,-2.144032 -1.471424,-5.696549 0.939193,-7.16632 0.840107,-0.51222 1.371643,-0.525785 20.63992,-0.526749 l 19.7776,-9.89e-4 v -1.00974 c 0,-5.473946 3.28743,-9.634082 8.40934,-10.641756 4.12267,-0.811086 8.59977,1.509063 10.53171,5.457802 0.54598,1.115954 0.75908,2.030391 0.87798,3.767515 l 0.15701,2.293888 19.97604,0.132291 19.97604,0.132292 0.82728,0.590102 c 1.14191,0.814529 1.68626,2.097679 1.68626,3.974819 0,1.959705 -0.6936,3.119334 -2.3733,3.967891 l -1.1784,0.595313 -48.82571,-0.02386 C 109.97025,86.443227 89.176665,86.332654 88.695043,86.193052 Z M 145.16278,75.302313 c -0.15294,-2.342243 -0.80255,-3.713172 -2.44415,-5.158167 -3.3157,-2.918601 -8.65381,-1.807374 -10.60274,2.207163 -0.29921,0.616332 -0.54417,1.806257 -0.6075,2.951004 l -0.10611,1.918229 h 6.94288 6.94288 z"
         id="path26" />
    </g>
  </g>
</svg>
