<?xml version="1.0" encoding="UTF-8" standalone="no"?>
<svg
   xmlns:dc="http://purl.org/dc/elements/1.1/"
   xmlns:cc="http://creativecommons.org/ns#"
   xmlns:rdf="http://www.w3.org/1999/02/22-rdf-syntax-ns#"
   xmlns:svg="http://www.w3.org/2000/svg"
   xmlns="http://www.w3.org/2000/svg"
   width="264.77359mm"
   height="262.17758mm"
   viewBox="0 0 264.77359 262.17758"
   version="1.1"
   id="svg8">
  <defs
     id="defs2" />
  <metadata
     id="metadata5">
    <rdf:RDF>
      <cc:Work
         rdf:about="">
        <dc:format>image/svg+xml</dc:format>
        <dc:type
           rdf:resource="http://purl.org/dc/dcmitype/StillImage" />
        <dc:title></dc:title>
      </cc:Work>
    </rdf:RDF>
  </metadata>
  <g
     id="layer1"
     transform="translate(29.633333,-19.348297)">
    <g
       id="g24">
      <path
         style="display:inline;fill:#000000;fill-opacity:1;stroke-width:0.518367"
         d="m 68.3597,281.20334 c -3.174331,-0.80632 -4.839337,-3.29697 -5.371146,-8.03458 -0.222571,-1.98276 -0.639095,-3.28824 -1.130051,-3.54182 -0.427653,-0.22088 -2.606305,-1.23554 -4.841453,-2.2548 l -4.063901,-1.85318 -2.156507,1.74232 c -2.942813,2.3776 -4.105293,2.9161 -6.29511,2.9161 -2.68126,0 -4.286063,-1.00262 -8.134402,-5.08207 -4.960827,-5.25873 -5.09399,-7.97467 -0.656522,-13.39002 l 1.821942,-2.22344 -1.256191,-2.48183 c -0.690906,-1.365 -1.545725,-3.45007 -1.899593,-4.63349 -0.634321,-2.12128 -0.684536,-2.15676 -3.557364,-2.51281 -3.993201,-0.49491 -5.909076,-1.38915 -7.372614,-3.44116 -1.146255,-1.60715 -1.235238,-2.17686 -1.139081,-7.29264 0.142121,-7.56096 1.406087,-9.75445 6.040317,-10.48239 1.039539,-0.16329 2.682748,-0.41963 3.651571,-0.56966 1.381574,-0.21393 1.837498,-0.5773 2.113861,-1.68469 0.193797,-0.77656 1.046723,-2.99628 1.895389,-4.93272 l 1.543035,-3.5208 -2.101793,-3.14745 c -3.444204,-5.15774 -2.79993,-8.15627 2.88968,-13.44887 3.178006,-2.95625 4.386497,-3.57637 6.969661,-3.57637 2.353984,0 2.614246,0.12501 7.049371,3.38592 1.036782,0.76229 1.264614,0.7562 2.851021,-0.0761 0.948306,-0.49754 3.355293,-1.51195 5.348856,-2.25423 l 3.624658,-1.34962 0.360224,-2.51825 c 0.869867,-6.08116 2.698065,-7.66504 9.204514,-7.97446 8.191163,-0.38955 11.000766,1.3303 12.125094,7.42215 l 0.653418,3.54038 2.569023,0.87381 c 1.41296,0.48059 3.745095,1.47006 5.182523,2.19881 2.60647,1.32145 2.616936,1.3223 3.887755,0.3166 2.941925,-2.32816 5.209945,-3.15714 7.640515,-2.79265 2.03583,0.30529 2.81651,0.84849 6.1452,4.27581 4.3563,4.48539 5.18978,6.4028 4.12574,9.4912 -0.3737,1.08466 -1.423,2.91093 -2.3318,4.05837 l -1.65235,2.08627 0.98915,1.96923 c 0.54403,1.08308 1.40541,3.2522 1.91419,4.82026 1.0637,3.27833 1.416,3.60979 3.84831,3.62063 2.46127,0.011 5.84029,1.75865 6.91376,3.57589 0.70098,1.18665 0.8954,2.73933 0.89388,7.13856 -0.003,8.11687 -0.97468,9.48863 -7.57932,10.69767 l -3.42205,0.62643 -1.16489,3.22056 c -0.6407,1.7713 -1.5473,3.80416 -2.01468,4.51747 -1.18044,1.80159 -1.1177,2.07566 1.2237,5.34538 3.40333,4.7527 2.72786,7.79819 -2.89647,13.05948 -5.12044,4.78992 -8.17027,5.03358 -13.194697,1.05415 -2.035846,-1.61242 -2.273093,-1.67841 -3.796315,-1.05593 -0.893624,0.36518 -3.245286,1.28483 -5.225915,2.04366 l -3.60115,1.37969 -0.556333,3.39952 c -1.029643,6.29172 -3.048114,7.76612 -10.497166,7.66773 -2.503803,-0.0331 -5.009171,-0.17617 -5.567494,-0.31799 z m 12.678395,-34.64349 c 7.11894,-2.35444 12.451593,-9.85292 12.432947,-17.48253 -0.03691,-15.10422 -16.626187,-24.08228 -29.096892,-15.74713 -9.581336,6.40396 -11.21932,19.59026 -3.48473,28.05314 5.247314,5.7414 12.672589,7.64907 20.148675,5.17652 z M 168.22886,228.6601 c -3.85481,-0.78839 -5.19088,-2.7329 -6.35551,-9.24974 -0.53284,-2.98162 -0.89752,-3.85249 -1.74718,-4.17238 -0.59058,-0.22235 -3.37454,-1.14728 -6.18657,-2.05541 -5.02494,-1.62277 -5.13181,-1.63443 -6.2204,-0.67849 -0.6092,0.53495 -2.32767,2.0402 -3.81883,3.34499 -4.85457,4.24786 -7.24033,3.86255 -14.54481,-2.34906 -6.20553,-5.27708 -6.46927,-5.62121 -6.72487,-8.77454 -0.2072,-2.55624 -0.0638,-2.952 2.47663,-6.83313 l 2.69658,-4.11973 -2.87997,-5.47006 -2.87997,-5.47007 -4.86597,-0.32454 c -8.68017,-0.57895 -9.6554,-1.93392 -10.49426,-14.58053 -0.43186,-6.51082 0.013,-8.11519 2.71276,-9.78374 0.98983,-0.61175 3.58661,-1.48855 5.77064,-1.94846 l 3.97096,-0.8362 0.67911,-2.33265 c 0.37351,-1.28296 1.26701,-4.14153 1.98555,-6.35238 l 1.30645,-4.01972 -1.53967,-1.94151 c -0.84681,-1.06782 -2.05577,-2.40748 -2.68658,-2.97701 -2.99131,-2.70075 -3.4446,-6.72044 -1.11662,-9.90201 2.78192,-3.80195 8.67729,-10.30899 9.94973,-10.98207 2.22644,-1.17769 5.38545,-0.45708 9.24399,2.10868 l 3.52203,2.34199 2.54637,-1.5913 c 1.40051,-0.87522 4.23755,-2.37519 6.30454,-3.33327 2.06699,-0.95809 3.77647,-1.79323 3.79885,-1.85587 0.0224,-0.0627 0.2147,-2.27131 0.42739,-4.90814 0.32679,-4.0514 0.58152,-5.00251 1.64401,-6.13841 1.96593,-2.10176 2.76199,-2.34716 9.90622,-3.05376 11.57244,-1.144571 12.73,-0.32934 15.13848,10.66156 0.25087,1.14479 0.73049,1.43758 3.28583,2.00583 1.64564,0.36596 4.62281,1.3104 6.61592,2.09876 l 3.62384,1.43338 2.9958,-2.77357 c 3.54261,-3.27983 6.10847,-4.26051 8.81243,-3.36812 1.00296,0.331 4.27195,2.68069 7.26444,5.22152 8.02537,6.81411 8.36389,8.65814 3.03569,16.53668 l -1.54101,2.27861 1.34317,2.12751 c 0.73874,1.17013 2.10011,3.78841 3.02526,5.81838 l 1.68208,3.69086 4.3203,0.23533 c 7.90349,0.4305 9.05147,1.75327 10.03111,11.55843 0.79962,8.00336 0.477,10.2715 -1.74414,12.26209 -1.36572,1.22395 -7.08318,3.03385 -9.5839,3.03385 -0.4845,0 -1.07645,1.23037 -1.68344,3.49898 -0.5149,1.92444 -1.47192,4.87953 -2.12671,6.56685 l -1.19052,3.06787 2.86515,3.00382 c 3.35965,3.52224 4.59741,6.07081 4.08402,8.40904 -0.43352,1.97444 -1.47731,3.51457 -6.10584,9.00924 -5.37503,6.38089 -7.8669,7.13549 -13.06411,3.95613 -6.33137,-3.87319 -5.35168,-3.68798 -8.81286,-1.66607 -1.6935,0.98929 -4.39453,2.34161 -6.00229,3.00515 l -2.9232,1.20646 -0.2082,4.98249 c -0.33801,8.08889 -1.69953,9.25251 -11.8666,10.1417 -3.58442,0.31349 -7.2525,0.41958 -8.1513,0.23576 z m 12.98327,-44.15773 c 4.7628,-2.35391 8.64723,-6.34394 10.96166,-11.25969 1.47906,-3.14143 1.58716,-3.77268 1.59779,-9.33061 0.0111,-5.82954 -0.0308,-6.04767 -1.90186,-9.87442 -3.55047,-7.26179 -10.15647,-11.99063 -17.97187,-12.86502 -5.08562,-0.56897 -8.52702,-0.006 -13.01692,2.12797 -8.65746,4.11548 -14.14872,14.47006 -12.56661,23.6962 1.62901,9.4997 8.03485,16.76782 16.95847,19.24126 0.8553,0.23708 3.909,0.37971 6.78598,0.31697 4.88469,-0.10652 5.49049,-0.24237 9.15336,-2.05266 z M 38.538763,175.99046 c -1.68429,-0.34 -3.998981,-2.00849 -4.760903,-3.43178 -0.332787,-0.62165 -0.973795,-4.02506 -1.424458,-7.56313 l -0.819389,-6.43285 -3.369387,-1.13812 c -1.853164,-0.62596 -5.07419,-1.99806 -7.15783,-3.04911 l -3.788443,-1.91101 -4.505435,3.57602 c -2.47799,1.96681 -5.0149468,3.84273 -5.6376838,4.1687 -1.4402873,0.75393 -4.5607089,0.76337 -6.0293804,0.0182 C -0.57577031,159.4047 -13.23314,146.81706 -14.118117,145.147 c -0.892186,-1.68366 -0.96432,-4.72278 -0.149063,-6.28022 0.325976,-0.62274 2.202163,-3.16004 4.169305,-5.63844 l 3.576621,-4.50619 -1.5168263,-3.01014 c -0.8342547,-1.65558 -2.1475937,-4.78996 -2.9185307,-6.96531 l -1.401703,-3.95517 -5.78649,-0.63378 c -6.850634,-0.75034 -8.582452,-1.37721 -10.245144,-3.70846 -1.215964,-1.70489 -1.243385,-1.9797 -1.243385,-12.460849 0,-10.010814 0.07057,-10.81405 1.070187,-12.181633 1.627284,-2.226289 4.097931,-3.160548 10.128491,-3.830024 l 5.496636,-0.610207 1.184417,-3.860209 c 0.651428,-2.123119 1.9685029,-5.496327 2.926832,-7.496022 0.958329,-1.999698 1.7424161,-3.718157 1.7424161,-3.818799 0,-0.100641 -1.3445951,-1.889439 -2.9879901,-3.975107 -4.323482,-5.487025 -4.78752,-6.347713 -4.78752,-8.879783 0,-2.941363 1.264946,-4.660975 8.876737,-12.067344 8.6172568,-8.384702 10.2625677,-8.617563 17.946092,-2.539908 l 4.273849,3.380608 4.128987,-2.076014 c 2.270945,-1.141808 5.781131,-2.632367 7.800421,-3.312354 2.019285,-0.679988 3.825463,-1.390372 4.013724,-1.578632 0.188255,-0.18826 0.616214,-2.633366 0.951012,-5.43357 0.683426,-5.716032 1.372844,-7.507773 3.493526,-9.079322 1.351446,-1.001504 2.252223,-1.094501 11.922449,-1.230886 9.45825,-0.133396 10.634389,-0.05328 12.274835,0.836176 2.707257,1.467878 3.564786,3.394742 4.253458,9.557529 l 0.610119,5.459795 4.177392,1.410879 c 2.29757,0.775983 5.746118,2.199028 7.66344,3.162322 1.917321,0.963293 3.685192,1.751443 3.928607,1.751443 0.243415,0 2.101721,-1.289164 4.129574,-2.864808 8.091802,-6.287348 8.880311,-6.126685 18.837822,3.838302 8.09421,8.100283 8.67419,9.060455 7.66992,12.697644 -0.28395,1.028375 -1.8586,3.563221 -3.49921,5.632991 -1.64062,2.06977 -3.14411,4.028638 -3.34108,4.35304 -0.19698,0.324402 0.67355,2.773688 1.93451,5.442859 1.26096,2.669167 2.56988,5.963718 2.90872,7.321223 0.69625,2.789454 0.44001,2.669805 7.421,3.465208 9.00468,1.025979 9.65483,2.113394 9.65594,16.15015 5.2e-4,9.728312 -0.0497,10.236112 -1.18487,11.922452 -1.63428,2.42775 -3.34861,3.1134 -9.5256,3.80976 -2.93098,0.33043 -5.40557,0.7045 -5.49907,0.83128 -0.0935,0.12678 -0.94186,2.3299 -1.88524,4.89582 -0.94339,2.56592 -2.36977,5.89468 -3.16975,7.39726 l -1.45452,2.73196 3.58516,4.52518 c 6.35757,8.02452 6.19195,9.4552 -2.07723,17.94435 -7.814295,8.02214 -9.334231,9.12982 -12.52782,9.12982 -2.248164,0 -2.88079,-0.30542 -6.710685,-3.2398 -2.325686,-1.78189 -4.680198,-3.56481 -5.232249,-3.96205 -0.889446,-0.64002 -1.400214,-0.5283 -4.486034,0.98128 -1.915269,0.93695 -5.348426,2.33158 -7.629243,3.09918 l -4.146938,1.39564 -0.684696,5.65777 c -0.753364,6.22521 -1.677852,8.67216 -3.887538,10.28963 -1.343255,0.98324 -2.248625,1.07656 -11.144898,1.14868 -5.325576,0.0432 -10.262978,-0.0386 -10.971996,-0.18174 z m 18.136066,-51.81911 c 6.621744,-1.82067 13.6031,-7.26929 17.063316,-13.31711 1.919151,-3.35433 3.674919,-9.82905 3.662379,-13.505698 C 77.357811,84.83446 68.221773,72.912597 56.340825,69.86724 49.642757,68.150378 41.806172,69.076312 35.759785,72.299 c -3.599299,1.918405 -8.878725,6.976157 -10.922876,10.46424 -6.491004,11.076059 -4.755741,24.72966 4.311417,33.92363 7.522754,7.62796 17.318078,10.29132 27.526503,7.48448 z"
         id="path26" />
    </g>
  </g>
</svg>
