<?xml version="1.0" encoding="UTF-8"?>
<svg width="350" height="331.57" version="1.1" viewBox="0 0 350 331.57" xmlns="http://www.w3.org/2000/svg" xmlns:cc="http://creativecommons.org/ns#" xmlns:dc="http://purl.org/dc/elements/1.1/" xmlns:rdf="http://www.w3.org/1999/02/22-rdf-syntax-ns#">
 <metadata>
  <rdf:RDF>
   <cc:Work rdf:about="">
    <dc:format>image/svg+xml</dc:format>
    <dc:type rdf:resource="http://purl.org/dc/dcmitype/StillImage"/>
    <dc:title/>
   </cc:Work>
  </rdf:RDF>
 </metadata>
 <g transform="translate(-121.51 -115.39)">
  <path d="m258.77 446.71c-2.086-0.42978-5.2588-3.7768-5.2588-5.5475 0-1.3402 3.9625-0.84816 6.4862 0.80544 3.092 2.026 6.1583 1.057 6.7693-2.1392 0.49657-2.5976-0.65622-4.2224-1.7454-2.4601-0.34546 0.55897-2.0981 1.0163-3.8948 1.0163-5.0096 0-7.8461-3.6152-7.8461-10 0-3.9653 0.51827-5.6771 2.2897-7.5627 2.5151-2.6772 7.671-3.3073 9.7827-1.1956 0.98886 0.98886 1.4102 0.96882 2.0698-0.0984 0.4555-0.73702 1.6743-1.1732 2.7084-0.96941 1.7141 0.33791 1.8778 1.4062 1.8536 12.097-0.0234 10.334-0.26092 11.956-2 13.658-2.0759 2.0312-7.4319 3.1757-11.215 2.3964zm7.5534-15.61c1.9363-4.0525 0.37623-8.1158-3.2808-8.5447-3.3609-0.39417-4.4954 1.083-4.5161 5.8801-0.0272 6.314 5.1996 8.1003 7.7969 2.6646zm-108.04 6.776c-3.5535-1.9929-4.7751-4.4237-4.7751-9.5018 0-10.335 13.802-14.074 18.49-5.0088 2.314 4.4749 1.893 8.564-1.2396 12.039-3.3184 3.681-8.491 4.7059-12.475 2.4717zm7.2093-3.4823c4.7026-2.5168 2.7485-12.008-2.4723-12.008-4.6624 0-6.379 8.579-2.2896 11.443 2.6295 1.8418 2.4222 1.8172 4.762 0.56502zm68.12 3.0958c-2.4428-2.4428-2.7484-6.3246-0.63586-8.0779 0.80757-0.67022 3.3951-1.7868 5.75-2.4814 4.9508-1.4601 6.5401-4.545 2.3414-4.545-1.4228 0-3.4696 0.55123-4.5484 1.225-1.5268 0.9535-2.2277 0.95874-3.1628 0.0236-0.93511-0.93511-0.79549-1.6498 0.63003-3.225 1.3513-1.4931 3.0828-2.0236 6.6049-2.0236 6.6962 0 7.9164 1.5398 7.9164 9.9896 0 3.7657 0.27884 7.5734 0.61964 8.4615 0.5106 1.3306-0.0613 1.5843-3.25 1.4415-2.1283-0.0953-5.2853 0.16176-7.0155 0.57121-2.501 0.59186-3.5771 0.31316-5.25-1.3597zm8.314-2.7112c2.2691-0.87072 2.0786-5.393-0.22708-5.393-2.8204 0-5.604 2.4818-4.885 4.3554 0.65771 1.714 2.4183 2.0713 5.1121 1.0376zm38.376 3.1078c-3.5169-1.9733-5.1404-7.503-3.7351-12.722 2.6785-9.9472 16.465-8.5445 17.222 1.7522l0.21825 2.969-6.25 0.29772c-6.3068 0.30042-7.6708 1.3815-5.05 4.0023 1.6978 1.6978 4.5395 1.4879 5.6038-0.41389 0.61647-1.1016 1.5846-1.3976 3.0497-0.93261 2.6374 0.83709 2.6993 1.7363 0.27054 3.9343-2.65 2.3982-8.0869 2.9324-11.329 1.1131zm8.5035-11.132c0.34732-0.34732 0.16705-1.4993-0.40059-2.5599-1.4809-2.7671-6.2861-2.0936-6.7171 0.94142-0.27767 1.9551 0.1264 2.25 3.0833 2.25 1.8716 0 3.687-0.28417 4.0344-0.63148zm21.199 10.22c-1.9362-1.9362-2.4454-3.2058-1.9473-4.8552 0.97964-3.2437 1.666-3.7406 7.0703-5.1193 5.7225-1.4598 6.6369-3.9446 1.6294-4.4274-1.8256-0.17601-3.25 0.1527-3.25 0.75 0 1.3268-3.6686 1.4086-4.4775 0.0998-0.32752-0.52993 0.34365-1.9027 1.4915-3.0505 1.681-1.681 3.0938-2.0285 7.2622-1.7865 6.4953 0.37717 7.6883 2.3231 7.709 12.575l0.0147 7.2742-3.75-0.1072c-2.0625-0.059-4.9606 0.20249-6.4403 0.581-2.1199 0.5423-3.2461 0.13237-5.3121-1.9336zm9.4672-3.5228c1.8367-3.432 1.2866-4.366-2.1651-3.6757-3.4854 0.69708-4.9041 2.1743-4.1002 4.2693 0.77557 2.0211 5.0844 1.6129 6.2653-0.59358zm33.285 4.4296c-2.682-1.9176-3.0195-6.6021-0.62131-8.623 0.89578-0.75484 3.4833-1.844 5.75-2.4203 2.4328-0.61852 4.1213-1.6372 4.1213-2.4863 0-1.9679-3.2534-2.4358-6.1516-0.88471-3.4666 1.8552-5.4262-0.23266-2.8697-3.0575 1.3426-1.4835 3.0831-2.0236 6.5214-2.0236 6.642 0 7.7659 1.6175 8.1705 11.758l0.32948 8.2581-3.5-0.14841c-1.925-0.0816-4.85 0.16317-6.5 0.54398-2.0682 0.47733-3.6988 0.1927-5.25-0.91642zm8.55-3.6954c1.8391-1.8391 1.4635-4.8-0.60887-4.8-2.8204 0-5.604 2.4818-4.885 4.3554 0.73777 1.9226 3.7704 2.168 5.4939 0.44461zm34.48 4.2147c-2.6834-1.1218-3.8577-5.0666-2.3479-7.8876 0.64142-1.1985 2.8713-2.512 5.335-3.1425 6.4921-1.6615 6.7404-1.8016 6.1091-3.4467-0.65048-1.6951-6.3762-2.1781-6.3762-0.53785 0 1.208-3.6694 1.3439-4.3993 0.16297-0.28452-0.46037 0.16444-1.8104 0.99769-3 1.1916-1.7013 2.5293-2.163 6.2672-2.163 7.0386 0 7.8295 1.059 8.4135 11.266l0.50158 8.7661-3.6404-0.0991c-2.0022-0.0545-4.7653 0.15036-6.1403 0.45529-1.375 0.30494-3.499 0.13678-4.7201-0.37367zm8.7448-5.5798c1.3908-3.658 1.3207-3.754-2.225-3.0448-3.4854 0.69708-4.9041 2.1743-4.1002 4.2693 0.92877 2.4203 5.2581 1.5823 6.3252-1.2244zm17.725 4.9931c-1.5929-0.86418-2.75-1.0577-2.75-0.45997 0 0.56757-0.9 1.0319-2 1.0319-1.9052 0-2-0.66667-2-14.07 0-14.019 8e-3 -14.068 2.25-13.75 1.9086 0.27106 2.3259 1.0783 2.75 5.3196 0.30557 3.0557 0.81459 4.5139 1.309 3.75 1.267-1.9576 7.4272-1.5138 9.6352 0.69422 4.128 4.128 3.4079 14.295-1.2432 17.553-2.6562 1.8605-4.4228 1.8452-7.951-0.0689zm6.0301-5.6551c1.8288-3.8158 0.35589-9.1632-2.6442-9.5997-3.3246-0.4837-5.1358 1.5892-5.1358 5.8778 0 6.7207 5.1598 9.1891 7.7801 3.7219zm24.051 5.747c-5.2261-2.9349-6.1321-12.442-1.6413-17.222 5.0703-5.3971 14.81-1.3483 14.81 6.1565v3.5454h-13.244l1.4914 2.25c1.8944 2.8579 4.0654 3.2942 6.128 1.2316 0.99461-0.99462 2.3903-1.3733 3.6214-0.98256 2.4946 0.79177 2.525 1.7187 0.1271 3.8887-2.637 2.3865-8.0866 2.9328-11.293 1.1321zm7.9885-12.77c-0.25029-1.7623-0.96979-2.25-3.3196-2.25s-3.0693 0.48768-3.3196 2.25c-0.28116 1.9797 0.11765 2.25 3.3196 2.25s3.6007-0.27032 3.3196-2.25zm-333.73 0.5c0.12416-7.0125 0.42878-13.312 0.67693-14 0.24814-0.6875 1.4295-1.25 2.6252-1.25 1.681 0 3.4144 2.097 7.643 9.2463l5.469 9.2463 0.28753-9.2463c0.28237-9.0806 0.33164-9.2463 2.75-9.2463h2.4625v28h-2.8838c-2.5688 0-3.4154-0.92578-7.75-8.4753-2.6764-4.6614-5.2037-8.4864-5.6162-8.5-0.4125-0.0136-0.75 3.8003-0.75 8.4753 0 8.4617-0.0116 8.5-2.5699 8.5h-2.5699zm61.914 2.75v-10h5v20h-5zm10 0v-10h2.5c1.375 0 2.5 0.46583 2.5 1.0352 0 0.71358 0.60093 0.71358 1.9343 0 2.7672-1.481 6.6808-1.2773 8.395 0.43694 1.2962 1.2962 1.6182 1.2962 2.6939 0 1.7163-2.068 7.3217-1.8536 9.3219 0.35662 1.2558 1.3876 1.655 3.7999 1.655 10 0 8.0493-0.0373 8.1713-2.5 8.1713-2.4454 0-2.5-0.16457-2.5-7.5314 0-6.0502-0.32174-7.6548-1.6359-8.1592-3.4212-1.3129-4.8498 1.054-5.1579 8.5453-0.27986 6.806-0.40842 7.1452-2.7079 7.1452-2.319 0-2.4256-0.30479-2.7062-7.7392-0.25399-6.7304-0.54415-7.7873-2.226-8.1087-3.0384-0.58065-4.5661 2.6109-4.5661 9.539 0 6.0628-0.0975 6.3089-2.5 6.3089h-2.5zm133.6 0.80681c-1.9815-5.1188-3.6013-9.6443-3.5996-10.057 2e-3 -0.4125 1.0913-0.75 2.4215-0.75 2.0942 0 2.7158 0.89361 4.6361 6.664 2.1249 6.3852 2.2702 6.563 3.4739 4.25 0.69092-1.3277 1.8259-4.3265 2.5222-6.664 1.0884-3.6539 1.6491-4.25 3.9978-4.25h2.7319l-3.7711 9.75c-3.2724 8.4605-4.1044 9.7906-6.2906 10.057-2.3248 0.2831-2.7978-0.41227-6.122-9zm40.617-0.55681c0.27151-9.2493 0.40175-9.7664 2.5362-10.07 2.2055-0.31324 2.25-0.12051 2.25 9.75v10.07h-5.0724zm10.786-4.25v-14h5v28h-5zm55 0v-14h5v28h-5zm-250-11.5c0-2 0.5-2.5 2.5-2.5s2.5 0.5 2.5 2.5-0.5 2.5-2.5 2.5-2.5-0.5-2.5-2.5zm184.18 0.25c0.20536-1.446 1.1236-2.3642 2.5696-2.5696 1.8325-0.26025 2.25 0.15726 2.25 2.25 0 2.0927-0.47682 2.5696-2.5696 2.5696-2.0927 0-2.5102-0.41752-2.25-2.25zm-251.18-163.25v-134.5h350v269h-350zm335.75 0.25 0.25408-118.75h-322.01v118.33c0 65.083 0.30137 118.63 0.66971 119 0.36833 0.36834 72.706 0.55584 160.75 0.41667l160.08-0.25304zm-312.75 82.121v-30.129l3.6729-4.1212c2.0201-2.2667 10.698-11.546 19.285-20.621s17.913-18.956 20.724-21.958c4.0752-4.3511 5.3926-5.2248 6.4969-4.3083 0.76184 0.63227 16.446 19.832 34.853 42.665 18.407 22.833 33.913 41.386 34.457 41.229 1.2848-0.37259 0.5989 0.61978 46.946-67.919l39.756-58.791 18.307 25.791c10.069 14.185 32.06 45.141 48.869 68.791l30.563 43 0.071 16.5h-304v-30.129zm79.459-110.7c-7.7181-3.6064-12.459-11.442-12.459-20.594 0-9.1695 4.1854-15.998 12.278-20.03 8.5861-4.2786 17.938-3.0538 24.949 3.2677 8.1682 7.3643 10.038 17.618 4.9796 27.302-4.17 7.9824-9.3962 11.269-18.52 11.646-5.4245 0.22412-8.1781-0.16617-11.228-1.5914z" fill="#d1d5db"/>
 </g>
</svg>
