<?xml version="1.0" encoding="UTF-8" standalone="no"?>
<svg
   xmlns:dc="http://purl.org/dc/elements/1.1/"
   xmlns:cc="http://creativecommons.org/ns#"
   xmlns:rdf="http://www.w3.org/1999/02/22-rdf-syntax-ns#"
   xmlns:svg="http://www.w3.org/2000/svg"
   xmlns="http://www.w3.org/2000/svg"
   xmlns:sodipodi="http://sodipodi.sourceforge.net/DTD/sodipodi-0.dtd"
   xmlns:inkscape="http://www.inkscape.org/namespaces/inkscape"
   width="135.25975mm"
   height="135.25043mm"
   viewBox="0 0 135.25975 135.25043"
   version="1.1"
   id="svg3828"
   inkscape:version="1.0.2-2 (e86c870879, 2021-01-15)"
   sodipodi:docname="pg3-0.svg">
  <defs
     id="defs3822" />
  <sodipodi:namedview
     id="base"
     pagecolor="#ffffff"
     bordercolor="#666666"
     borderopacity="1.0"
     inkscape:pageopacity="0.0"
     inkscape:pageshadow="2"
     inkscape:zoom="0.35"
     inkscape:cx="89.894698"
     inkscape:cy="312.73422"
     inkscape:document-units="mm"
     inkscape:current-layer="layer1"
     inkscape:document-rotation="0"
     showgrid="false"
     inkscape:window-width="1273"
     inkscape:window-height="728"
     inkscape:window-x="77"
     inkscape:window-y="0"
     inkscape:window-maximized="0"
     fit-margin-top="0"
     fit-margin-left="0"
     fit-margin-right="0"
     fit-margin-bottom="0" />
  <metadata
     id="metadata3825">
    <rdf:RDF>
      <cc:Work
         rdf:about="">
        <dc:format>image/svg+xml</dc:format>
        <dc:type
           rdf:resource="http://purl.org/dc/dcmitype/StillImage" />
        <dc:title></dc:title>
      </cc:Work>
    </rdf:RDF>
  </metadata>
  <g
     inkscape:label="طبقة 1"
     inkscape:groupmode="layer"
     id="layer1"
     transform="translate(-34.423694,-65.422404)">
    <path
       d="m 59.792711,200.31974 c -5.9602,-1.2948 -10.084,-7.3303 -9.0806,-13.291 0.85882,-5.1029 4.7711,-9.0152 9.8741,-9.8741 7.6785,-1.2923 14.738,5.7674 13.446,13.446 -0.8242,4.8973 -4.4418,8.7218 -9.2046,9.731 -2.1601,0.45774 -2.8808,0.45603 -5.0348,-0.0119 z m 4.6323,-8.064 c 3.4417,-2.0984 1.9703,-7.4078 -2.0529,-7.4078 -0.72236,0 -1.5298,0.20678 -2.0529,0.52576 -3.4417,2.0984 -1.9702,7.4078 2.0529,7.4078 0.72236,0 1.5298,-0.20678 2.0529,-0.52576 z m 33.410998,-15.9 c -13.81,-1.3295 -26.435998,-9.4775 -33.470998,-21.60101 -1.1523,-1.9856 -1.3476,-2.1898 -2.2232,-2.3237 -7.6336,-1.1674 -14.075,-4.5052 -19.193,-9.9454 -2.3906,-2.5412 -4.0227,-4.9503 -5.5777,-8.23279 -7.6164,-16.078 0.0724,-35.464996 16.799,-42.356996 2.0534,-0.84609 5.5434,-1.7941 7.9745,-2.1662 0.88588,-0.13558 1.0699,-0.33243 2.2955,-2.456 6.5401,-11.331 17.618998,-19.067 30.607998,-21.371 3.6093,-0.64032 10.414001,-0.64032 14.023001,0 12.983,2.3032 24.071,10.046 30.608,21.371 1.2256,2.1235 1.4096,2.3204 2.2955,2.456 7.6392,1.1691 14.077,4.5048 19.196,9.946 8.9496,9.513496 11.046,23.327996 5.3202,35.064996 -4.4602,9.14339 -13.154,15.69999 -23.124,17.43899 -1.2325,0.21492 -2.2766,0.42659 -2.3204,0.47038 -0.0438,0.0438 -0.75431,1.2038 -1.5789,2.5777 -7.2557,12.08901 -19.516,19.80701 -33.585,21.14101 -3.2274,0.30605 -4.7614,0.30364 -8.046401,-0.0126 z m 10.064001,-8.0684 c 11.742,-1.971 21.472,-9.47421 26.724,-20.60801 l 1.2765,-2.7063 2.9895,-0.15416 c 6.0578,-0.31238 11.223,-2.5525 15.653,-6.7887 3.0778,-2.94319 4.9654,-5.98629 6.4103,-10.33499 0.69889,-2.1034 0.74726,-2.5315 0.74726,-6.6146 0,-4.0831 -0.0484,-4.5112 -0.74726,-6.6146 -1.4954,-4.5006 -3.386,-7.488 -6.711,-10.604 -4.4766,-4.195396 -10.419,-6.585496 -16.388,-6.591796 l -1.9087,-0.002 -1.4152,-2.9766 c -4.9206,-10.35 -13.098,-17.206 -24.004,-20.125 -2.9292,-0.784 -3.245,-0.81436 -8.4667,-0.81436 -5.221701,0 -5.537401,0.0304 -8.466701,0.81436 -10.85,2.9038 -19.095998,9.7995 -23.962998,20.037 l -1.4186,2.9845 -2.986,0.15841 c -6.0757,0.32232 -11.29,2.5782 -15.644,6.768396 -3.0936,2.9768 -4.9723,6.0081 -6.4152,10.351 -0.6989,2.1034 -0.74726,2.5315 -0.74726,6.6146 0,4.0831 0.0484,4.5112 0.74726,6.6146 1.3715,4.1278 2.8804,6.6763 5.6959,9.62059 4.3984,4.5996 10.018,7.1756 16.367,7.503 l 2.9895,0.15416 1.2765,2.7063 c 5.22,11.066 14.889998,18.55501 26.610998,20.60801 2.9305,0.51324 8.734501,0.51302 11.793001,-5.3e-4 z m -9.809101,-27.36301 v -3.9688 h 7.937501 v 7.9375 h -7.937501 z m 0.06796,-16.07299 c 0.08795,-2.7938 0.27354,-4.6162 0.56311,-5.5296 0.7066,-2.2288 2.393401,-4.4756 4.566801,-6.0829 2.1748,-1.6084 2.7401,-2.4582 2.7387,-4.1171 -0.003,-3.9739 -5.3288,-5.4114 -7.408801,-1.9999 -0.28917,0.47427 -0.52621,1.1302 -0.52675,1.4576 -0.0011,0.59102 -0.02982,0.59532 -3.993,0.59532 h -3.992 l 0.17344,-1.1245 c 0.70252,-4.5547 3.2072,-8.0099 7.0289,-9.696196 5.660901,-2.4979 12.613001,0.035 15.298001,5.573896 2.6304,5.426 1.0692,11.38 -3.9393,15.023 -2.511,1.8263 -2.6394,2.1417 -2.6394,6.4827 v 3.585 h -8.000701 z"
       fill="#818cf8"
       opacity="0.46129"
       stroke-width="0.26458"
       id="path3844"
       style="fill:#c7d2fe;fill-opacity:1;opacity:1" />
  </g>
</svg>
