<?xml version="1.0" encoding="UTF-8" standalone="no"?>
<svg
   xmlns:dc="http://purl.org/dc/elements/1.1/"
   xmlns:cc="http://creativecommons.org/ns#"
   xmlns:rdf="http://www.w3.org/1999/02/22-rdf-syntax-ns#"
   xmlns:svg="http://www.w3.org/2000/svg"
   xmlns="http://www.w3.org/2000/svg"
   xmlns:sodipodi="http://sodipodi.sourceforge.net/DTD/sodipodi-0.dtd"
   xmlns:inkscape="http://www.inkscape.org/namespaces/inkscape"
   width="128.67467mm"
   height="90.908127mm"
   viewBox="0 0 128.67467 90.908127"
   version="1.1"
   id="svg128"
   inkscape:version="1.0.2-2 (e86c870879, 2021-01-15)"
   sodipodi:docname="signal.svg">
  <defs
     id="defs122" />
  <sodipodi:namedview
     id="base"
     pagecolor="#ffffff"
     bordercolor="#666666"
     borderopacity="1.0"
     inkscape:pageopacity="0.0"
     inkscape:pageshadow="2"
     inkscape:zoom="0.35"
     inkscape:cx="231.57375"
     inkscape:cy="205.83589"
     inkscape:document-units="mm"
     inkscape:current-layer="g144"
     inkscape:document-rotation="0"
     showgrid="false"
     fit-margin-top="0"
     fit-margin-left="0"
     fit-margin-right="0"
     fit-margin-bottom="0"
     inkscape:window-width="1273"
     inkscape:window-height="728"
     inkscape:window-x="77"
     inkscape:window-y="0"
     inkscape:window-maximized="0" />
  <metadata
     id="metadata125">
    <rdf:RDF>
      <cc:Work
         rdf:about="">
        <dc:format>image/svg+xml</dc:format>
        <dc:type
           rdf:resource="http://purl.org/dc/dcmitype/StillImage" />
        <dc:title></dc:title>
      </cc:Work>
    </rdf:RDF>
  </metadata>
  <g
     inkscape:label="طبقة 1"
     inkscape:groupmode="layer"
     id="layer1"
     transform="translate(-44.562779,-93.705922)">
    <g
       id="g144">
      <path
         style="fill:#000000;fill-opacity:1;stroke-width:0.251485"
         d="m 103.38492,179.77061 c -5.571812,-5.57732 -5.556145,-5.54622 -3.644113,-7.23295 2.436093,-2.14905 5.550523,-3.2642 9.116333,-3.2642 3.56582,0 6.68025,1.11515 9.11634,3.2642 1.91737,1.69144 1.93209,1.66224 -3.64889,7.23773 -3.70591,3.70225 -4.99113,4.83866 -5.47223,4.83866 -0.48144,0 -1.76248,-1.13482 -5.46744,-4.84344 z M 84.64934,161.53799 c -3.945118,-3.94882 -4.964473,-5.10556 -4.964473,-5.63357 0,-1.43679 6.565286,-6.54967 11.29665,-8.79754 6.011294,-2.85596 11.278343,-4.04899 17.875623,-4.04899 6.59729,0 11.86433,1.19303 17.87563,4.04899 4.74052,2.25222 11.29665,7.36067 11.29665,8.8022 0,0.5344 -1.00035,1.66851 -4.96913,5.63357 -3.42075,3.41754 -5.14018,4.96447 -5.51804,4.96447 -0.3019,0 -1.19876,-0.56867 -1.99302,-1.26371 -9.69799,-8.48648 -23.68619,-8.48648 -33.384169,0 -0.79671,0.69718 -1.692284,1.26371 -1.997682,1.26371 -0.384254,0 -2.071981,-1.51984 -5.518039,-4.96913 z M 67.212198,144.09478 c -3.652901,-3.63711 -5.13129,-5.27283 -5.13129,-5.67739 0,-1.09691 5.730165,-6.08141 10.872273,-9.45747 8.072844,-5.30023 16.445835,-8.50304 26.221784,-10.03027 5.066875,-0.79157 14.297485,-0.79157 19.364355,0 9.77595,1.52723 18.14894,4.73004 26.22179,10.03027 5.1421,3.37606 10.87227,8.36056 10.87227,9.45747 0,0.40456 -1.47839,2.04028 -5.13129,5.67739 -4.53424,4.51462 -5.19994,5.08746 -5.72129,4.92314 -0.3245,-0.10227 -1.49534,-0.99805 -2.60188,-1.99061 -7.51022,-6.73669 -15.68099,-10.6341 -25.91377,-12.36072 -3.44397,-0.58112 -11.37204,-0.58112 -14.81602,0 -10.232777,1.72662 -18.403541,5.62403 -25.913768,12.36072 -1.106534,0.99256 -2.277379,1.88834 -2.601877,1.99061 -0.521347,0.16432 -1.187053,-0.40852 -5.721287,-4.92314 z M 49.528476,126.41102 c -3.747295,-3.76357 -5.074955,-5.2504 -4.958744,-5.55324 0.08729,-0.22747 0.158701,-0.50567 0.158701,-0.61824 0,-0.32708 6.207268,-5.84529 8.943187,-7.95043 13.173956,-10.13661 27.097493,-15.800235 44.874632,-18.253489 1.553618,-0.2144 5.159418,-0.329699 10.310888,-0.329699 8.00831,0 9.31382,0.09595 15.64934,1.150155 12.7892,2.128075 25.83853,7.581813 36.65277,15.318373 5.37833,3.84769 12.07836,9.76886 12.07819,10.67413 -1.5e-4,0.73631 -10.00499,10.70211 -10.74404,10.70211 -0.37227,0 -1.35033,-0.72337 -2.77442,-2.05194 -9.55893,-8.91781 -21.34131,-15.24025 -33.88659,-18.18359 -10.88951,-2.55487 -23.06098,-2.55487 -33.950494,0 -12.545283,2.94334 -24.327663,9.26578 -33.886587,18.18359 -1.42409,1.32857 -2.40215,2.05194 -2.774423,2.05194 -0.413274,0 -2.014076,-1.44536 -5.69241,-5.13967 z"
         id="path146" />
    </g>
  </g>
</svg>
