<?xml version="1.0" encoding="UTF-8" standalone="no"?>
<svg
   xmlns:dc="http://purl.org/dc/elements/1.1/"
   xmlns:cc="http://creativecommons.org/ns#"
   xmlns:rdf="http://www.w3.org/1999/02/22-rdf-syntax-ns#"
   xmlns:svg="http://www.w3.org/2000/svg"
   xmlns="http://www.w3.org/2000/svg"
   xmlns:sodipodi="http://sodipodi.sourceforge.net/DTD/sodipodi-0.dtd"
   xmlns:inkscape="http://www.inkscape.org/namespaces/inkscape"
   width="127.00197mm"
   height="109.95701mm"
   viewBox="0 0 127.00197 109.95701"
   version="1.1"
   id="svg94"
   inkscape:version="1.0.2-2 (e86c870879, 2021-01-15)"
   sodipodi:docname="wifi.svg">
  <defs
     id="defs88" />
  <sodipodi:namedview
     id="base"
     pagecolor="#ffffff"
     bordercolor="#666666"
     borderopacity="1.0"
     inkscape:pageopacity="0.0"
     inkscape:pageshadow="2"
     inkscape:zoom="0.35"
     inkscape:cx="245.71799"
     inkscape:cy="273.48114"
     inkscape:document-units="mm"
     inkscape:current-layer="g110"
     inkscape:document-rotation="0"
     showgrid="false"
     fit-margin-top="0"
     fit-margin-left="0"
     fit-margin-right="0"
     fit-margin-bottom="0"
     inkscape:window-width="1273"
     inkscape:window-height="728"
     inkscape:window-x="77"
     inkscape:window-y="0"
     inkscape:window-maximized="0" />
  <metadata
     id="metadata91">
    <rdf:RDF>
      <cc:Work
         rdf:about="">
        <dc:format>image/svg+xml</dc:format>
        <dc:type
           rdf:resource="http://purl.org/dc/dcmitype/StillImage" />
        <dc:title></dc:title>
      </cc:Work>
    </rdf:RDF>
  </metadata>
  <g
     inkscape:label="طبقة 1"
     inkscape:groupmode="layer"
     id="layer1"
     transform="translate(-40.820449,-75.808116)">
    <g
       id="g110"
       style="fill:#000000">
      <path
         style="display:inline;fill:#000000;fill-opacity:1;stroke-width:0.264583"
         d="m 87.391746,185.29891 c -4.412956,-1.53572 -5.553937,-7.43195 -2.035884,-10.5208 0.929701,-0.81628 3.109084,-1.66501 4.275442,-1.66501 0.464455,0 0.672846,-0.34883 1.224975,-2.05052 l 0.665314,-2.05052 h 12.799837 12.79984 l 0.66531,2.05052 c 0.55213,1.70169 0.76052,2.05052 1.22498,2.05052 0.30781,0 1.20542,0.19177 1.9947,0.42616 3.03191,0.90038 4.9164,4.09369 4.22887,7.16591 -0.40951,1.82988 -1.65489,3.44573 -3.31393,4.29973 l -1.31305,0.67591 -15.88242,0.0616 c -15.037417,0.0583 -15.959653,0.0348 -17.333984,-0.44353 z M 45.058414,164.12813 c -1.865443,-0.64389 -3.257381,-2.0999 -3.820605,-3.99648 -0.284204,-0.95702 -0.416376,-2.47869 -0.416376,-4.79365 v -3.39156 h 63.499997 63.5 v 3.39156 c 0,4.29874 -0.38963,5.74324 -1.97741,7.33102 -2.14803,2.14803 3.16012,1.97848 -61.63676,1.96878 -55.917638,-0.008 -57.742058,-0.0241 -59.148846,-0.50967 z m 107.296916,-4.36446 c 0.40937,-0.40937 0.64943,-0.95173 0.64943,-1.46723 0,-0.51551 -0.24006,-1.05787 -0.64943,-1.46724 -0.40937,-0.40937 -0.95173,-0.64943 -1.46724,-0.64943 -0.5155,0 -1.05786,0.24006 -1.46723,0.64943 -0.40937,0.40937 -0.64943,0.95173 -0.64943,1.46724 0,0.5155 0.24006,1.05786 0.64943,1.46723 0.40937,0.40937 0.95173,0.64943 1.46723,0.64943 0.51551,0 1.05787,-0.24006 1.46724,-0.64943 z m 6.35,0 c 0.40937,-0.40937 0.64943,-0.95173 0.64943,-1.46723 0,-0.51551 -0.24006,-1.05787 -0.64943,-1.46724 -0.40937,-0.40937 -0.95173,-0.64943 -1.46724,-0.64943 -0.5155,0 -1.05786,0.24006 -1.46723,0.64943 -0.40937,0.40937 -0.64943,0.95173 -0.64943,1.46724 0,0.5155 0.24006,1.05786 0.64943,1.46723 0.40937,0.40937 0.95173,0.64943 1.46723,0.64943 0.51551,0 1.05787,-0.24006 1.46724,-0.64943 z M 40.821433,117.86321 c 0,-33.639322 -0.108385,-31.759263 1.949561,-33.81721 1.922412,-1.922411 2.153797,-1.949561 16.615231,-1.949561 H 72.03414 l -1.029124,1.359706 c -1.185164,1.565874 -2.137751,4.204681 -2.137751,5.921891 v 1.185069 h -9.140151 -9.140151 l -0.649432,0.649433 -0.649432,0.649431 v 27.925571 27.92556 h -4.233333 -4.233333 z m 118.533327,1.92433 V 91.861969 l -0.64943,-0.649431 -0.64943,-0.649433 h -9.10341 -9.1034 l -0.14254,-1.57199 c -0.18038,-1.989211 -1.15507,-4.131025 -2.58678,-5.684246 l -1.11574,-1.21043 h 12.95026 c 14.79729,0 14.99025,0.02224 16.91758,1.949561 2.05794,2.057947 1.94956,0.177888 1.94956,33.81721 v 29.84989 h -4.23334 -4.23333 z m -56.84658,14.95208 c -2.38104,-0.4908 -4.846503,-2.55932 -5.942566,-4.9858 -0.768029,-1.70027 -0.7651,-4.72087 0.0062,-6.42886 0.781997,-1.73161 2.520397,-3.51989 4.239176,-4.36081 2.11492,-1.03473 4.8938,-1.04135 6.98743,-0.0166 1.75454,0.85875 3.49183,2.64185 4.26498,4.37743 0.845,1.89687 0.77637,4.81859 -0.15806,6.72849 -0.82511,1.68647 -2.63531,3.46962 -4.23018,4.16696 -1.37752,0.60232 -3.65405,0.83108 -5.16701,0.51921 z m 8.56012,-18.35197 c -0.43656,-0.19166 -1.32953,-0.79958 -1.98437,-1.35092 -1.6817,-1.41589 -2.74747,-1.81111 -4.89479,-1.81513 -1.99225,-0.004 -3.23481,0.49696 -5.603792,2.25808 -3.47305,2.58188 -8.525107,-0.14961 -8.545607,-4.62035 -0.01016,-2.21352 1.417772,-4.14425 4.492106,-6.07387 6.821463,-4.28154 15.813463,-3.55775 21.592903,1.73806 1.96469,1.80027 2.48418,2.75438 2.48418,4.56245 0,3.7277 -4.27678,6.73464 -7.54063,5.30168 z m 7.88925,-10.60106 c -0.4631,-0.20143 -1.47013,-0.86273 -2.23783,-1.46957 -3.50908,-2.77377 -7.87117,-4.25345 -12.53058,-4.25056 -4.718522,0.003 -8.363652,1.18205 -12.429062,4.02052 -1.653689,1.1546 -2.21142,1.39985 -3.409477,1.4992 -3.430513,0.28449 -6.027583,-2.01049 -6.027245,-5.32614 2.52e-4,-2.471492 0.942346,-3.820952 4.178657,-5.985529 11.060244,-7.397541 25.736717,-7.059645 36.387937,0.837761 2.67624,1.984308 3.51872,3.237542 3.50536,5.214428 -0.0266,3.93047 -4.09224,6.91499 -7.43776,5.45989 z m 9.17638,-10.558614 c -0.50932,-0.186443 -1.82702,-0.990068 -2.92822,-1.785836 -3.82554,-2.764481 -9.00517,-4.983232 -13.94134,-5.971926 -3.24748,-0.650455 -11.18027,-0.647779 -14.441038,0.0049 -4.836165,0.967969 -9.432131,2.875755 -13.54011,5.620508 -3.583537,2.394342 -5.876988,2.489343 -8.208724,0.340027 -1.384048,-1.275773 -1.806191,-2.412521 -1.657792,-4.464126 0.158639,-2.193153 0.965698,-3.264038 3.956188,-5.249461 12.02877,-7.986048 27.789186,-10.089017 41.765206,-5.572881 5.08457,1.643001 12.17585,5.527992 14.70619,8.056856 2.6458,2.644255 1.70821,7.095103 -1.84294,8.748609 -1.51263,0.704321 -2.49956,0.774078 -3.86742,0.273359 z"
         id="path112" />
    </g>
  </g>
</svg>
